<svg width="249" height="249" viewBox="0 0 249 249" fill="none" xmlns="http://www.w3.org/2000/svg">
<g clip-path="url(#clip0_1834_155)">
<rect width="249" height="249" rx="124.5" fill="black"/>
<path d="M50 229L62.9904 251.5H37.0096L50 229Z" fill="#67FF59"/>
<path d="M139.134 230.5C139.519 229.833 140.481 229.833 140.866 230.5L152.124 250C152.509 250.667 152.028 251.5 151.258 251.5H128.742C127.972 251.5 127.491 250.667 127.876 250L139.134 230.5Z" fill="#67FF59"/>
<path d="M79.134 230.5C79.5189 229.833 80.4811 229.833 80.866 230.5L92.1244 250C92.5093 250.667 92.0281 251.5 91.2583 251.5H68.7417C67.9719 251.5 67.4907 250.667 67.8756 250L79.134 230.5Z" fill="#67FF59"/>
<path d="M169.134 230.5C169.519 229.833 170.481 229.833 170.866 230.5L182.124 250C182.509 250.667 182.028 251.5 181.258 251.5H158.742C157.972 251.5 157.491 250.667 157.876 250L169.134 230.5Z" fill="#67FF59"/>
<path d="M109.134 230.5C109.519 229.833 110.481 229.833 110.866 230.5L122.124 250C122.509 250.667 122.028 251.5 121.258 251.5H98.7417C97.9719 251.5 97.4907 250.667 97.8756 250L109.134 230.5Z" fill="#67FF59"/>
<path d="M200 229L212.99 251.5H187.01L200 229Z" fill="#67FF59"/>
<path d="M204.055 46.9851C203.33 47.2432 202.597 46.6195 202.737 45.8623L206.804 23.7161C206.943 22.9589 207.849 22.6363 208.436 23.1353L225.581 37.7308C226.167 38.2298 225.994 39.1762 225.268 39.4344L204.055 46.9851Z" fill="#CBFFC6"/>
<path d="M181.443 34.1864C180.855 34.6836 179.949 34.3581 179.813 33.6005L175.814 11.4417C175.677 10.6842 176.412 10.0627 177.137 10.3231L198.326 17.9396C199.05 18.1999 199.221 19.1469 198.633 19.6441L181.443 34.1864Z" fill="#CBFFC6"/>
<path d="M155.868 22.5C155.483 23.1667 154.521 23.1667 154.136 22.5L142.877 3C142.493 2.33333 142.974 1.5 143.743 1.5L166.26 1.5C167.03 1.5 167.511 2.33333 167.126 3L155.868 22.5Z" fill="#CBFFC6"/>
<path d="M44.2373 46.9851C44.9625 47.2432 45.6952 46.6195 45.5561 45.8623L41.4888 23.7161C41.3497 22.9589 40.4432 22.6363 39.857 23.1353L22.7115 37.7308C22.1253 38.2298 22.2991 39.1762 23.0244 39.4344L44.2373 46.9851Z" fill="#CBFFC6"/>
<path d="M66.8499 34.1864C67.4376 34.6836 68.3432 34.3581 68.4799 33.6005L72.4785 11.4417C72.6152 10.6842 71.8806 10.0627 71.1562 10.3231L49.9668 17.9396C49.2424 18.1999 49.0715 19.1469 49.6592 19.6441L66.8499 34.1864Z" fill="#CBFFC6"/>
<path d="M92.4259 22.5C92.8108 23.1667 93.773 23.1667 94.1579 22.5L105.416 3C105.801 2.33333 105.32 1.5 104.55 1.5L82.0336 1.5C81.2638 1.5 80.7826 2.33333 81.1675 3L92.4259 22.5Z" fill="#CBFFC6"/>
<path d="M124.868 19.5C124.483 20.1667 123.521 20.1667 123.136 19.5L111.877 5.96046e-07C111.493 -0.666666 111.974 -1.5 112.743 -1.5L135.26 -1.5C136.03 -1.5 136.511 -0.666667 136.126 -1.19209e-07L124.868 19.5Z" fill="#CBFFC6"/>
<path d="M111.224 212V207.1H111.651L113.891 210.922H113.667L115.886 207.1H116.313V212H115.816V207.877H115.935L113.891 211.377H113.646L111.588 207.877H111.721V212H111.224ZM117.804 212V208.325H118.301V212H117.804ZM118.056 207.513C117.954 207.513 117.867 207.478 117.797 207.408C117.727 207.338 117.692 207.254 117.692 207.156C117.692 207.058 117.727 206.976 117.797 206.911C117.867 206.841 117.954 206.806 118.056 206.806C118.159 206.806 118.245 206.839 118.315 206.904C118.385 206.969 118.42 207.051 118.42 207.149C118.42 207.252 118.385 207.338 118.315 207.408C118.25 207.478 118.164 207.513 118.056 207.513ZM121.56 208.29C121.859 208.29 122.12 208.348 122.344 208.465C122.573 208.577 122.75 208.75 122.876 208.983C123.007 209.216 123.072 209.51 123.072 209.865V212H122.575V209.914C122.575 209.527 122.477 209.235 122.281 209.039C122.09 208.838 121.819 208.738 121.469 208.738C121.208 208.738 120.979 208.792 120.783 208.899C120.592 209.002 120.443 209.153 120.335 209.354C120.233 209.55 120.181 209.788 120.181 210.068V212H119.684V208.325H120.16V209.333L120.083 209.144C120.2 208.878 120.387 208.67 120.643 208.521C120.9 208.367 121.206 208.29 121.56 208.29ZM124.415 212V208.325H124.912V212H124.415ZM124.667 207.513C124.564 207.513 124.478 207.478 124.408 207.408C124.338 207.338 124.303 207.254 124.303 207.156C124.303 207.058 124.338 206.976 124.408 206.911C124.478 206.841 124.564 206.806 124.667 206.806C124.769 206.806 124.856 206.839 124.926 206.904C124.996 206.969 125.031 207.051 125.031 207.149C125.031 207.252 124.996 207.338 124.926 207.408C124.86 207.478 124.774 207.513 124.667 207.513ZM128.171 208.29C128.469 208.29 128.731 208.348 128.955 208.465C129.183 208.577 129.361 208.75 129.487 208.983C129.617 209.216 129.683 209.51 129.683 209.865V212H129.186V209.914C129.186 209.527 129.088 209.235 128.892 209.039C128.7 208.838 128.43 208.738 128.08 208.738C127.818 208.738 127.59 208.792 127.394 208.899C127.202 209.002 127.053 209.153 126.946 209.354C126.843 209.55 126.792 209.788 126.792 210.068V212H126.295V208.325H126.771V209.333L126.694 209.144C126.81 208.878 126.997 208.67 127.254 208.521C127.51 208.367 127.816 208.29 128.171 208.29ZM132.593 213.393C132.257 213.393 131.935 213.344 131.627 213.246C131.319 213.148 131.069 213.008 130.878 212.826L131.13 212.448C131.303 212.602 131.515 212.723 131.767 212.812C132.024 212.905 132.294 212.952 132.579 212.952C133.046 212.952 133.389 212.842 133.608 212.623C133.827 212.408 133.937 212.072 133.937 211.615V210.698L134.007 210.068L133.958 209.438V208.325H134.434V211.552C134.434 212.187 134.278 212.651 133.965 212.945C133.657 213.244 133.2 213.393 132.593 213.393ZM132.502 211.86C132.152 211.86 131.837 211.785 131.557 211.636C131.277 211.482 131.055 211.27 130.892 210.999C130.733 210.728 130.654 210.418 130.654 210.068C130.654 209.718 130.733 209.41 130.892 209.144C131.055 208.873 131.277 208.663 131.557 208.514C131.837 208.365 132.152 208.29 132.502 208.29C132.829 208.29 133.123 208.358 133.384 208.493C133.645 208.628 133.853 208.829 134.007 209.095C134.161 209.361 134.238 209.685 134.238 210.068C134.238 210.451 134.161 210.775 134.007 211.041C133.853 211.307 133.645 211.51 133.384 211.65C133.123 211.79 132.829 211.86 132.502 211.86ZM132.551 211.419C132.822 211.419 133.062 211.363 133.272 211.251C133.482 211.134 133.648 210.976 133.769 210.775C133.89 210.57 133.951 210.334 133.951 210.068C133.951 209.802 133.89 209.569 133.769 209.368C133.648 209.167 133.482 209.011 133.272 208.899C133.062 208.782 132.822 208.724 132.551 208.724C132.285 208.724 132.045 208.782 131.83 208.899C131.62 209.011 131.454 209.167 131.333 209.368C131.216 209.569 131.158 209.802 131.158 210.068C131.158 210.334 131.216 210.57 131.333 210.775C131.454 210.976 131.62 211.134 131.83 211.251C132.045 211.363 132.285 211.419 132.551 211.419ZM135.866 212.035C135.763 212.035 135.675 211.998 135.6 211.923C135.53 211.848 135.495 211.757 135.495 211.65C135.495 211.538 135.53 211.447 135.6 211.377C135.675 211.307 135.763 211.272 135.866 211.272C135.969 211.272 136.055 211.307 136.125 211.377C136.2 211.447 136.237 211.538 136.237 211.65C136.237 211.757 136.2 211.848 136.125 211.923C136.055 211.998 135.969 212.035 135.866 212.035ZM137.349 212.035C137.247 212.035 137.158 211.998 137.083 211.923C137.013 211.848 136.978 211.757 136.978 211.65C136.978 211.538 137.013 211.447 137.083 211.377C137.158 211.307 137.247 211.272 137.349 211.272C137.452 211.272 137.538 211.307 137.608 211.377C137.683 211.447 137.72 211.538 137.72 211.65C137.72 211.757 137.683 211.848 137.608 211.923C137.538 211.998 137.452 212.035 137.349 212.035ZM138.833 212.035C138.73 212.035 138.641 211.998 138.567 211.923C138.497 211.848 138.462 211.757 138.462 211.65C138.462 211.538 138.497 211.447 138.567 211.377C138.641 211.307 138.73 211.272 138.833 211.272C138.935 211.272 139.022 211.307 139.092 211.377C139.166 211.447 139.204 211.538 139.204 211.65C139.204 211.757 139.166 211.848 139.092 211.923C139.022 211.998 138.935 212.035 138.833 212.035Z" fill="#484848"/>
<path d="M107.186 200.098C106.868 200.098 106.598 199.991 106.374 199.776C106.15 199.552 106.038 199.272 106.038 198.936C106.038 198.581 106.15 198.301 106.374 198.096C106.598 197.881 106.868 197.774 107.186 197.774C107.503 197.774 107.774 197.881 107.998 198.096C108.222 198.301 108.334 198.581 108.334 198.936C108.334 199.272 108.222 199.552 107.998 199.776C107.774 199.991 107.503 200.098 107.186 200.098ZM110.604 200.098C110.286 200.098 110.016 199.991 109.792 199.776C109.568 199.552 109.456 199.272 109.456 198.936C109.456 198.581 109.568 198.301 109.792 198.096C110.016 197.881 110.286 197.774 110.604 197.774C110.921 197.774 111.192 197.881 111.416 198.096C111.64 198.301 111.752 198.581 111.752 198.936C111.752 199.272 111.64 199.552 111.416 199.776C111.192 199.991 110.921 200.098 110.604 200.098ZM114.021 200.098C113.704 200.098 113.433 199.991 113.209 199.776C112.985 199.552 112.873 199.272 112.873 198.936C112.873 198.581 112.985 198.301 113.209 198.096C113.433 197.881 113.704 197.774 114.021 197.774C114.339 197.774 114.609 197.881 114.833 198.096C115.057 198.301 115.169 198.581 115.169 198.936C115.169 199.272 115.057 199.552 114.833 199.776C114.609 199.991 114.339 200.098 114.021 200.098ZM117.439 200.098C117.122 200.098 116.851 199.991 116.627 199.776C116.403 199.552 116.291 199.272 116.291 198.936C116.291 198.581 116.403 198.301 116.627 198.096C116.851 197.881 117.122 197.774 117.439 197.774C117.757 197.774 118.027 197.881 118.251 198.096C118.475 198.301 118.587 198.581 118.587 198.936C118.587 199.272 118.475 199.552 118.251 199.776C118.027 199.991 117.757 200.098 117.439 200.098ZM120.056 201.4L124.676 188.212H126.244L121.624 201.4H120.056ZM131.724 200V190.9L132.522 191.726H129.652V190.2H133.544V200H131.724ZM136.188 200V190.2H140.78C141.956 190.2 142.852 190.433 143.468 190.9C144.084 191.357 144.392 191.973 144.392 192.748C144.392 193.271 144.271 193.719 144.028 194.092C143.785 194.456 143.459 194.741 143.048 194.946C142.647 195.142 142.208 195.24 141.732 195.24L141.984 194.736C142.535 194.736 143.029 194.839 143.468 195.044C143.907 195.24 144.252 195.529 144.504 195.912C144.765 196.295 144.896 196.771 144.896 197.34C144.896 198.18 144.574 198.833 143.93 199.3C143.286 199.767 142.329 200 141.06 200H136.188ZM138.008 198.572H140.948C141.629 198.572 142.152 198.46 142.516 198.236C142.88 198.012 143.062 197.653 143.062 197.158C143.062 196.673 142.88 196.318 142.516 196.094C142.152 195.861 141.629 195.744 140.948 195.744H137.868V194.33H140.584C141.219 194.33 141.704 194.218 142.04 193.994C142.385 193.77 142.558 193.434 142.558 192.986C142.558 192.529 142.385 192.188 142.04 191.964C141.704 191.74 141.219 191.628 140.584 191.628H138.008V198.572Z" fill="#2B2B2B"/>
<path d="M226.425 39.62V36.22H222.965V33.78H226.425V30.38H229.005V33.78H232.485V36.22H229.005V39.62H226.425ZM234.488 42V39.48H237.128V30.52H234.708V28H240.028V39.48H242.388V42H234.488ZM249.598 42.24C248.584 42.24 247.678 42.02 246.878 41.58C246.078 41.14 245.444 40.5467 244.978 39.8C244.524 39.04 244.298 38.1933 244.298 37.26V32.74C244.298 31.8067 244.524 30.9667 244.978 30.22C245.444 29.46 246.078 28.86 246.878 28.42C247.678 27.98 248.584 27.76 249.598 27.76C250.598 27.76 251.491 27.98 252.278 28.42C253.078 28.86 253.704 29.46 254.158 30.22C254.624 30.9667 254.858 31.8067 254.858 32.74V37.26C254.858 38.1933 254.624 39.04 254.158 39.8C253.704 40.5467 253.078 41.14 252.278 41.58C251.491 42.02 250.598 42.24 249.598 42.24ZM249.598 39.72C250.038 39.72 250.438 39.62 250.798 39.42C251.158 39.2067 251.444 38.9267 251.658 38.58C251.884 38.2333 251.998 37.8533 251.998 37.44V32.56C251.998 32.1333 251.884 31.7533 251.658 31.42C251.444 31.0733 251.158 30.8 250.798 30.6C250.438 30.3867 250.038 30.28 249.598 30.28C249.158 30.28 248.751 30.3867 248.378 30.6C248.004 30.8 247.704 31.0733 247.478 31.42C247.264 31.7533 247.158 32.1333 247.158 32.56V37.44C247.158 37.8533 247.264 38.2333 247.478 38.58C247.704 38.9267 248.004 39.2067 248.378 39.42C248.751 39.62 249.158 39.72 249.598 39.72ZM262.566 42.24C261.553 42.24 260.646 42.02 259.846 41.58C259.046 41.14 258.413 40.5467 257.946 39.8C257.493 39.04 257.266 38.1933 257.266 37.26V32.74C257.266 31.8067 257.493 30.9667 257.946 30.22C258.413 29.46 259.046 28.86 259.846 28.42C260.646 27.98 261.553 27.76 262.566 27.76C263.566 27.76 264.46 27.98 265.246 28.42C266.046 28.86 266.673 29.46 267.126 30.22C267.593 30.9667 267.826 31.8067 267.826 32.74V37.26C267.826 38.1933 267.593 39.04 267.126 39.8C266.673 40.5467 266.046 41.14 265.246 41.58C264.46 42.02 263.566 42.24 262.566 42.24ZM262.566 39.72C263.006 39.72 263.406 39.62 263.766 39.42C264.126 39.2067 264.413 38.9267 264.626 38.58C264.853 38.2333 264.966 37.8533 264.966 37.44V32.56C264.966 32.1333 264.853 31.7533 264.626 31.42C264.413 31.0733 264.126 30.8 263.766 30.6C263.406 30.3867 263.006 30.28 262.566 30.28C262.126 30.28 261.72 30.3867 261.346 30.6C260.973 30.8 260.673 31.0733 260.446 31.42C260.233 31.7533 260.126 32.1333 260.126 32.56V37.44C260.126 37.8533 260.233 38.2333 260.446 38.58C260.673 38.9267 260.973 39.2067 261.346 39.42C261.72 39.62 262.126 39.72 262.566 39.72Z" fill="#828282"/>
<path d="M102.424 129.384C101.379 129.384 100.44 129.149 99.608 128.68C98.776 128.189 98.1787 127.432 97.816 126.408L91 106.6H96.792L101.976 123.944C102.019 124.072 102.072 124.168 102.136 124.232C102.221 124.296 102.317 124.328 102.424 124.328C102.531 124.328 102.616 124.296 102.68 124.232C102.765 124.168 102.829 124.072 102.872 123.944L108.152 106.6H113.816L107.032 126.408C106.669 127.411 106.072 128.157 105.24 128.648C104.408 129.139 103.469 129.384 102.424 129.384ZM115.765 129V106.6H126.005C127.519 106.6 128.895 106.931 130.133 107.592C131.391 108.253 132.383 109.171 133.109 110.344C133.855 111.517 134.229 112.872 134.229 114.408C134.229 115.837 133.887 117.128 133.205 118.28C132.522 119.411 131.626 120.328 130.517 121.032L132.309 124.072C132.415 124.221 132.533 124.339 132.661 124.424C132.81 124.509 133.002 124.552 133.237 124.552H135.221V129H132.085C131.125 129 130.25 128.776 129.461 128.328C128.671 127.859 128.053 127.251 127.605 126.504L125.205 122.248C125.055 122.248 124.895 122.248 124.725 122.248C124.575 122.248 124.415 122.248 124.245 122.248H121.141V129H115.765ZM121.141 117.8H125.397C126.015 117.8 126.591 117.672 127.125 117.416C127.658 117.139 128.074 116.755 128.373 116.264C128.693 115.752 128.853 115.144 128.853 114.44C128.853 113.736 128.693 113.139 128.373 112.648C128.053 112.136 127.626 111.752 127.093 111.496C126.581 111.219 126.015 111.08 125.397 111.08H121.141V117.8ZM137.64 129V106.6H145.864C148.232 106.6 150.28 107.08 152.008 108.04C153.757 109 155.112 110.323 156.072 112.008C157.053 113.693 157.544 115.624 157.544 117.8C157.544 119.976 157.053 121.907 156.072 123.592C155.112 125.277 153.757 126.6 152.008 127.56C150.28 128.52 148.232 129 145.864 129H137.64ZM143.016 124.52H145.736C146.973 124.52 148.072 124.253 149.032 123.72C150.013 123.165 150.781 122.387 151.336 121.384C151.89 120.381 152.168 119.187 152.168 117.8C152.168 116.413 151.89 115.219 151.336 114.216C150.781 113.213 150.013 112.445 149.032 111.912C148.072 111.357 146.973 111.08 145.736 111.08H143.016V124.52Z" fill="#CDCDCD"/>
<path d="M116.75 140V135.548H115.028V135.1H118.99V135.548H117.268V140H116.75ZM120.828 140.035C120.473 140.035 120.153 139.956 119.869 139.797C119.589 139.634 119.367 139.412 119.204 139.132C119.04 138.847 118.959 138.523 118.959 138.159C118.959 137.79 119.04 137.466 119.204 137.186C119.367 136.906 119.589 136.687 119.869 136.528C120.149 136.369 120.468 136.29 120.828 136.29C121.192 136.29 121.514 136.369 121.794 136.528C122.078 136.687 122.3 136.906 122.459 137.186C122.622 137.466 122.704 137.79 122.704 138.159C122.704 138.523 122.622 138.847 122.459 139.132C122.3 139.412 122.078 139.634 121.794 139.797C121.509 139.956 121.187 140.035 120.828 140.035ZM120.828 139.594C121.094 139.594 121.329 139.536 121.535 139.419C121.74 139.298 121.901 139.13 122.018 138.915C122.139 138.696 122.2 138.444 122.2 138.159C122.2 137.87 122.139 137.618 122.018 137.403C121.901 137.188 121.74 137.023 121.535 136.906C121.329 136.785 121.096 136.724 120.835 136.724C120.573 136.724 120.34 136.785 120.135 136.906C119.929 137.023 119.766 137.188 119.645 137.403C119.523 137.618 119.463 137.87 119.463 138.159C119.463 138.444 119.523 138.696 119.645 138.915C119.766 139.13 119.929 139.298 120.135 139.419C120.34 139.536 120.571 139.594 120.828 139.594ZM124.11 139.048L124.124 138.411L126.413 136.325H127.022L125.405 137.872L125.125 138.11L124.11 139.048ZM123.718 140V134.806H124.215V140H123.718ZM126.567 140L125.034 138.089L125.356 137.704L127.176 140H126.567ZM129.34 140.035C128.957 140.035 128.621 139.956 128.332 139.797C128.043 139.634 127.816 139.412 127.653 139.132C127.49 138.847 127.408 138.523 127.408 138.159C127.408 137.795 127.485 137.473 127.639 137.193C127.798 136.913 128.012 136.694 128.283 136.535C128.558 136.372 128.866 136.29 129.207 136.29C129.552 136.29 129.858 136.369 130.124 136.528C130.395 136.682 130.607 136.901 130.761 137.186C130.915 137.466 130.992 137.79 130.992 138.159C130.992 138.182 130.99 138.208 130.985 138.236C130.985 138.259 130.985 138.285 130.985 138.313H127.786V137.942H130.719L130.523 138.089C130.523 137.823 130.465 137.587 130.348 137.382C130.236 137.172 130.082 137.009 129.886 136.892C129.69 136.775 129.464 136.717 129.207 136.717C128.955 136.717 128.729 136.775 128.528 136.892C128.327 137.009 128.171 137.172 128.059 137.382C127.947 137.592 127.891 137.832 127.891 138.103V138.18C127.891 138.46 127.952 138.707 128.073 138.922C128.199 139.132 128.372 139.298 128.591 139.419C128.815 139.536 129.069 139.594 129.354 139.594C129.578 139.594 129.786 139.554 129.977 139.475C130.173 139.396 130.341 139.274 130.481 139.111L130.761 139.433C130.598 139.629 130.392 139.778 130.145 139.881C129.902 139.984 129.634 140.035 129.34 140.035ZM133.88 136.29C134.178 136.29 134.44 136.348 134.664 136.465C134.892 136.577 135.07 136.75 135.196 136.983C135.326 137.216 135.392 137.51 135.392 137.865V140H134.895V137.914C134.895 137.527 134.797 137.235 134.601 137.039C134.409 136.838 134.139 136.738 133.789 136.738C133.527 136.738 133.299 136.792 133.103 136.899C132.911 137.002 132.762 137.153 132.655 137.354C132.552 137.55 132.501 137.788 132.501 138.068V140H132.004V136.325H132.48V137.333L132.403 137.144C132.519 136.878 132.706 136.67 132.963 136.521C133.219 136.367 133.525 136.29 133.88 136.29Z" fill="#CDCDCD"/>
</g>
<rect x="0.5" y="0.5" width="248" height="248" rx="124" stroke="white"/>
<defs>
<clipPath id="clip0_1834_155">
<rect width="249" height="249" rx="124.5" fill="white"/>
</clipPath>
</defs>
</svg>
